# xmcd
#
# Track frame offsets:
#	150
#	11125
#	22343
#	33826
#	45832
#	55762
#	66152
#	79147
#	91334
#	102873
#
# Disc length: 1511 seconds
#
# Revision: 1
# Processed by: cddbd v1.5.2PL0 Copyright (c) Steve Scherf et al.
# Submitted via: EZCDAudioConverter 3.1.0.1
#
DISCID=7505e50a
DTITLE=PeeWee King and Redd Stewart - Tennessee Waltz And Slow Poke
DYEAR=1964
DGENRE=Western Swing
TTITLE0=Tennessee Waltz
TTITLE1=WAitin'
TTITLE2=Twin Fiddle Polka
TTITLE3=When The Lights Go Dim Downtown
TTITLE4=Goodbye  New Orleans
TTITLE5=Slowpoke
TTITLE6=It Hurts A Lot
TTITLE7=New Westphalia Waltz
TTITLE8=The Thousand Crying Towels
TTITLE9=Twenty Four Months For Each Single Year
EXTD=
EXTT0=
EXTT1=
EXTT2=
EXTT3=
EXTT4=
EXTT5=
EXTT6=
EXTT7=
EXTT8=
EXTT9=
PLAYORDER=
